<svg width="74" height="46" viewBox="0 0 74 46" fill="none" xmlns="http://www.w3.org/2000/svg">
<path d="M8.02767e-05 16.9295V0.936829H5.34477V16.9295C5.34477 17.9254 5.66984 18.6103 6.31999 18.9842C6.97013 19.3581 8.09311 19.5451 9.68892 19.5451C11.2611 19.5451 12.3587 19.3581 12.9819 18.9842C13.61 18.612 13.9241 17.9254 13.9241 16.9295V0.936829H19.2587V16.9295C19.2587 21.1848 16.0443 23.3125 9.61546 23.3125C3.18663 23.3125 -0.0184953 21.1848 8.02767e-05 16.9295Z" fill="white"/>
<path d="M34.3479 10.1039H27.2909V4.70676H38.3451C38.8359 3.59068 39.4859 2.55056 40.2752 1.61838C40.4728 1.38198 40.6805 1.15563 40.8958 0.936829H21.9564V22.973H27.2909V13.8763H30.9461C31.8712 12.4475 33.0195 11.1741 34.3479 10.1039Z" fill="white"/>
<path d="M48.2847 5.97682C58.4041 3.11982 67.6446 4.42509 68.9263 8.89167C69.8889 12.2567 66.0615 16.4542 59.7922 19.5426C60.2 18.2851 60.271 17.1282 60.0708 16.429C59.5085 14.4623 55.4101 13.8965 50.919 15.1715C46.4279 16.4466 43.2414 19.0622 43.8037 21.0289C44.0038 21.7281 44.6751 22.6687 45.6908 23.5439C38.7225 24.1927 33.2435 22.6209 32.281 19.2684C31.0018 14.7717 38.1677 8.8464 48.2847 5.97682Z" fill="white"/>
<path d="M47.5501 3.51215C50.0137 2.80793 52.5398 2.34051 55.0935 2.11635C53.0873 0.564611 50.0528 -0.609879 46.6737 0.343294C43.2946 1.29647 41.3543 3.86425 40.4576 6.23586C42.7299 5.1076 45.1046 4.19562 47.5501 3.51215Z" fill="white"/>
<path d="M50.7645 46C50.8811 44.6646 46.0835 21.6979 46.0835 21.6979L58.351 17.7469L74 46H50.7645Z" fill="url(#paint0_linear)"/>
<ellipse cx="52.3022" cy="19.8585" rx="6.4808" ry="2.85618" transform="rotate(-16.57 52.3022 19.8585)" fill="white"/>
<path d="M5.39 33.6577H7.14V36.5577C6.74 36.8443 6.28 37.0643 5.76 37.2177C5.24 37.371 4.72 37.4477 4.2 37.4477C3.46667 37.4477 2.80667 37.2943 2.22 36.9877C1.63333 36.6743 1.17333 36.241 0.84 35.6877C0.506667 35.1343 0.34 34.5077 0.34 33.8077C0.34 33.1077 0.506667 32.481 0.84 31.9277C1.17333 31.3743 1.63667 30.9443 2.23 30.6377C2.82333 30.3243 3.49333 30.1677 4.24 30.1677C4.89333 30.1677 5.48 30.2777 6 30.4977C6.52 30.7177 6.95333 31.0343 7.3 31.4477L6.04 32.5877C5.56667 32.0677 5 31.8077 4.34 31.8077C3.74 31.8077 3.25667 31.991 2.89 32.3577C2.52333 32.7177 2.34 33.201 2.34 33.8077C2.34 34.1943 2.42333 34.541 2.59 34.8477C2.75667 35.1477 2.99 35.3843 3.29 35.5577C3.59 35.7243 3.93333 35.8077 4.32 35.8077C4.7 35.8077 5.05667 35.731 5.39 35.5777V33.6577ZM13.0853 35.9477H10.1253L9.57531 37.3077H7.55531L10.6453 30.3077H12.5953L15.6953 37.3077H13.6353L13.0853 35.9477ZM12.5053 34.4877L11.6053 32.2477L10.7053 34.4877H12.5053ZM22.5766 37.3077L22.5566 33.5977L20.7566 36.6177H19.8766L18.0866 33.6977V37.3077H16.2566V30.3077H17.8866L20.3466 34.3477L22.7466 30.3077H24.3766L24.3966 37.3077H22.5766ZM25.7977 30.3077H27.7777V37.3077H25.7977V30.3077ZM35.8463 30.3077V37.3077H34.2163L31.1263 33.5777V37.3077H29.1863V30.3077H30.8163L33.9063 34.0377V30.3077H35.8463ZM41.933 33.6577H43.683V36.5577C43.283 36.8443 42.823 37.0643 42.303 37.2177C41.783 37.371 41.263 37.4477 40.743 37.4477C40.0096 37.4477 39.3496 37.2943 38.763 36.9877C38.1763 36.6743 37.7163 36.241 37.383 35.6877C37.0496 35.1343 36.883 34.5077 36.883 33.8077C36.883 33.1077 37.0496 32.481 37.383 31.9277C37.7163 31.3743 38.1796 30.9443 38.773 30.6377C39.3663 30.3243 40.0363 30.1677 40.783 30.1677C41.4363 30.1677 42.023 30.2777 42.543 30.4977C43.063 30.7177 43.4963 31.0343 43.843 31.4477L42.583 32.5877C42.1096 32.0677 41.543 31.8077 40.883 31.8077C40.283 31.8077 39.7996 31.991 39.433 32.3577C39.0663 32.7177 38.883 33.201 38.883 33.8077C38.883 34.1943 38.9663 34.541 39.133 34.8477C39.2996 35.1477 39.533 35.3843 39.833 35.5577C40.133 35.7243 40.4763 35.8077 40.863 35.8077C41.243 35.8077 41.5996 35.731 41.933 35.5777V33.6577Z" fill="white" fill-opacity="0.97"/>
<defs>
<linearGradient id="paint0_linear" x1="38.1025" y1="23.3857" x2="49.4782" y2="51.545" gradientUnits="userSpaceOnUse">
<stop stop-color="white" stop-opacity="0.647411"/>
<stop offset="0.489125" stop-color="white" stop-opacity="0.180862"/>
<stop offset="1" stop-color="white" stop-opacity="0.01"/>
</linearGradient>
</defs>
</svg>
